<?xml version="1.0" encoding="utf-8"?>
<!-- Generator: Adobe Illustrator 24.1.2, SVG Export Plug-In . SVG Version: 6.00 Build 0)  -->
<svg version="1.1" xmlns="http://www.w3.org/2000/svg" xmlns:xlink="http://www.w3.org/1999/xlink" x="0px" y="0px"
	 viewBox="0 0 100 100" style="enable-background:new 0 0 100 100;" xml:space="preserve">
<style type="text/css">
	.st0{display:none;}
	.st1{display:inline;}
	.st2{fill:none;stroke:#828282;stroke-width:2;stroke-linecap:round;stroke-linejoin:round;stroke-miterlimit:10;}
	.st3{fill:#828282;}
	.st4{fill:#3A3A3A;}
	.st5{fill:#3A3A3A;stroke:#828282;stroke-width:2;stroke-linecap:round;stroke-linejoin:round;stroke-miterlimit:10;}
	.st6{fill:none;}
</style>
<g id="Layer_1" class="st0">
</g>
<g id="Layer_2">
	<g>
		<g>
			<path class="st4" d="M49.4,29.4c-0.3,0-0.6,0-0.9-0.1c0,0.3,0,0.6,0,0.9c0.3,0,0.6,0.1,0.9,0.1C49.4,30,49.4,29.7,49.4,29.4z
				 M52.4,29.2c0,0.3,0,0.6-0.1,0.9c0.3,0,0.6-0.1,0.9-0.2c0-0.3,0-0.6,0.1-0.9C53,29.1,52.7,29.2,52.4,29.2z M48.5,29.4
				c0,0.3,0,0.6,0,0.9c0.3,0,0.6,0.1,0.9,0.1c0-0.3,0-0.6,0-0.9C49.1,29.4,48.8,29.4,48.5,29.4z M50,0.2c-8.3,0-15.1,6.8-15.1,15.1
				v0c0,0.3,0,0.5,0,0.8c0,0.1,0,0.2,0,0.4c0.2,2.5,1,4.8,2.3,6.8c-0.7-1.9-1.2-4.2-1.4-6.9c0-0.1,0-0.2,0-0.4c0-0.3,0-0.5,0-0.8v0
				c0-7.8,6.4-14.2,14.2-14.2c7.8,0,14.2,6.4,14.2,14.2c0,0.3,0,0.7,0,1c-0.1,1.3-0.4,2.6-0.8,3.8c-0.3,1.3-0.8,2.8-1.4,4.3
				c1-1.3,1.7-2.7,2.3-4.2c0,0,0,0,0,0c0.5-1.6,0.8-3.2,0.8-5C65.1,6.9,58.3,0.2,50,0.2z M52.3,30.1c0.3,0,0.6-0.1,0.9-0.2
				c0-0.3,0-0.6,0.1-0.9c-0.3,0.1-0.6,0.1-0.9,0.2C52.4,29.5,52.4,29.8,52.3,30.1z M48.5,29.4c0,0.3,0,0.6,0,0.9
				c0.3,0,0.6,0.1,0.9,0.1c0-0.3,0-0.6,0-0.9C49.1,29.4,48.8,29.4,48.5,29.4z"/>
		</g>
		<g>
			<path class="st4" d="M65,16.4c0,0.1-0.2,1.6-0.8,3.8c0,0,0,0,0,0c-0.8,3.1-2.4,7.7-5.1,11.4c-2.8,4.8-3.3,7.6-3.3,8.1
				c0.2,0.6,0.8,3.1-0.6,5.2c0.2,0.6,0.6,2.3-0.4,3.2c0.2,0.7,0.6,2.3-0.3,3.2v35.7c0,0.1,0,0.1,0,0.2l-2,6.7v0L52.4,94l-1.6,5.5
				c-0.1,0.2-0.2,0.3-0.4,0.3h0c-0.2,0-0.3-0.1-0.4-0.3l-4.5-12.4c0,0,0,0,0,0c0,0,0-0.1,0-0.1V51.6c-0.5-0.4-1.7-1.8-0.5-4
				c-0.3-0.5-0.7-1.5,0.1-2.9c-0.4-0.7-1.2-2.7-0.4-4.6c0-0.5-0.1-3.7-5.1-10.6c-0.2-0.2-4-5-4.5-13c0-0.1,0-0.2,0-0.4
				c0-0.3,0-0.5,0-0.8v0c0-0.2,0.2-0.4,0.4-0.4c0.2,0,0.4,0.2,0.4,0.4v0c0,0.3,0,0.5,0,0.8c0,0.1,0,0.2,0,0.4c0.1,2.7,0.7,5,1.4,6.9
				c1.2,3.5,2.9,5.6,2.9,5.6c4.7,6.4,5.2,9.8,5.3,10.9c0,0.2,0,0.3,0,0.4c0,0,0,0.1,0,0.1c-0.1,0.1-0.1,0.2-0.1,0.4
				c-0.5,1.5,0.2,3.2,0.5,3.6v0c0,0.1,0.1,0.1,0.1,0.1c0.1,0.1,0.1,0.3,0,0.4c-0.1,0.1-0.1,0.2-0.2,0.3c-0.5,1.1-0.2,1.8,0,2
				c0,0,0.1,0.1,0.1,0.1c0.1,0.1,0.2,0.4,0.1,0.5c-0.1,0.1-0.1,0.2-0.2,0.3c-0.9,1.7,0.1,2.7,0.4,2.9c0,0,0.1,0,0.1,0.1
				c0.1,0.1,0.2,0.2,0.2,0.4v35.6l0.2,0.5v0l2.2,5.9l0.3,0.9l1.4,3.8l1.1-3.8l0.3-0.9l1.8-6.1l0.1-0.4V51c0-0.1,0.1-0.3,0.2-0.4
				c0,0,0,0,0,0c0,0,0,0,0,0c0.9-0.6,0.1-2.6,0-2.6c-0.1-0.2,0-0.5,0.2-0.6c1-0.5,0.3-2.5,0.3-2.6c-0.1-0.1,0-0.3,0.1-0.4
				c1.1-1.5,0.9-3.4,0.7-4.2c-0.1-0.3-0.1-0.4-0.1-0.4c0-0.1,0-0.1,0-0.2c0,0,0-0.1,0-0.3c0.1-0.8,0.8-3.6,3.4-8.3c0,0,0,0,0,0
				c1.5-2.1,2.7-4.4,3.6-6.7c0.6-1.6,1.1-3.1,1.4-4.3c0.6-2.2,0.8-3.7,0.8-3.8c0,0,0,0,0,0c0.1-0.2,0.3-0.4,0.5-0.3
				C64.9,16,65,16.2,65,16.4z"/>
		</g>
		<g>
			<path class="st4" d="M52,94.2h-3.6c-0.2,0-0.4-0.2-0.4-0.4s0.2-0.4,0.4-0.4H52c0.2,0,0.4,0.2,0.4,0.4S52.2,94.2,52,94.2z"/>
		</g>
		<g>
			<path class="st4" d="M48.4,88.2c-0.5,0-1.1-0.2-1.3-0.5c-0.1-0.1-0.8-0.4-1.2-0.3c-0.2,0.1-0.5-0.1-0.5-0.3
				c-0.1-0.2,0.1-0.5,0.3-0.5c0.8-0.2,1.8,0.2,2.1,0.6c0.1,0.1,0.4,0.2,0.8,0.2c0.1,0,0.2-0.1,0.3-0.1c0.3-0.4,0.7-0.6,1.3-0.6
				c0.4,0,0.8,0.1,1,0.3c0.1,0.1,0.4,0.2,0.8,0.2c0.1,0,0.3,0,0.4-0.2c0.6-0.6,1.4-0.5,1.8-0.3c0.2,0.1,0.3,0.3,0.2,0.6
				c-0.1,0.2-0.3,0.3-0.6,0.2c0,0-0.5-0.2-0.8,0.1c-0.3,0.3-0.7,0.5-1.2,0.5c0,0,0,0,0,0c-0.5,0-1.1-0.2-1.4-0.5c0,0-0.2-0.1-0.4,0
				c-0.1,0-0.4,0.1-0.5,0.3c-0.2,0.3-0.5,0.5-1,0.5C48.5,88.2,48.5,88.2,48.4,88.2z"/>
		</g>
		<g>
			<path class="st4" d="M49.7,52.1c-1.1,0-2.4-0.1-4-0.3c-0.2,0-0.4-0.3-0.4-0.5c0-0.2,0.3-0.4,0.5-0.4c5.4,0.9,7.9-0.3,7.9-0.3
				c0.2-0.1,0.5,0,0.6,0.2c0.1,0.2,0,0.5-0.2,0.6C54.1,51.5,52.7,52.1,49.7,52.1z"/>
		</g>
		<g>
			<path class="st4" d="M48.5,82.5c-0.2,0-0.4-0.2-0.4-0.4V51.6c0-0.2,0.2-0.4,0.4-0.4c0.2,0,0.4,0.2,0.4,0.4V82
				C48.9,82.3,48.7,82.5,48.5,82.5z"/>
		</g>
		<g>
			<path class="st4" d="M51.8,87.9c-0.2,0-0.4-0.2-0.4-0.4V56.1c0-0.2,0.2-0.4,0.4-0.4c0.2,0,0.4,0.2,0.4,0.4v31.4
				C52.3,87.7,52.1,87.9,51.8,87.9z"/>
		</g>
		<g>
			<path class="st4" d="M55.5,40.1c0,0-0.2,0.1-0.5,0.2c-0.9,0.3-3,0.9-5.6,0.9c-1.3,0-2.8-0.2-4.2-0.6c-0.1,0-0.3-0.1-0.4-0.1
				c-0.2-0.1-0.3-0.3-0.3-0.6c0.1-0.2,0.3-0.3,0.6-0.3c0.1,0,0.2,0.1,0.3,0.1c0.8,0.3,1.7,0.5,2.5,0.5c0.3,0,0.6,0.1,0.9,0.1
				c1.2,0,2.3-0.1,3.2-0.2c0.3-0.1,0.6-0.1,0.9-0.2c1-0.2,1.7-0.4,2-0.6c0.1,0,0.2-0.1,0.2-0.1c0.2-0.1,0.5,0,0.6,0.2
				C55.8,39.8,55.7,40,55.5,40.1z"/>
		</g>
		<g>
			<path class="st4" d="M57.3,17.2c-0.2-0.6-0.6-1-1.1-1.1c-0.4,0-1.2,0.1-2,1.6c-0.4,0.7-0.7,2.1-1,3.8c-0.8,0.4-1.5,0.4-2,0.2
				c-0.3-0.1-0.5-0.3-0.7-0.6c0.5-0.7,0.9-1.6,1.1-2.9c0.3-1.4,0.2-2.4-0.3-2.8c-0.3-0.2-0.7-0.2-1.1,0c-0.7,0.4-1.4,1.7-1.3,3.3
				c0.1,0.9,0.2,1.7,0.5,2.4c-0.3,0.4-0.7,0.7-1.1,0.8c-0.4-1.3-0.9-2.4-1.6-3.1c-1-1-2.4-2.3-3.3-1.6c-0.9,0.8-0.2,3.3,0.4,4
				c0.8,1,2.4,1.8,3.9,1.7c0.4,1.9,0.7,4.1,0.7,6.4c0,0.3,0,0.6,0,0.9c0,4.8-0.5,9.3-0.6,10c0,0.1,0,0.1,0,0.1
				c0,0.2,0.1,0.5,0.4,0.5s0.5-0.1,0.5-0.4c0,0,0-0.1,0-0.1c0.1-0.9,0.6-5.3,0.6-10c0-0.3,0-0.6,0-0.9c-0.1-2.3-0.3-4.7-0.8-6.7
				c0.4-0.2,0.9-0.4,1.3-0.9c0.2,0.3,0.5,0.5,0.9,0.7c0.6,0.3,1.4,0.3,2.2,0c-0.3,2-0.5,4.4-0.7,6.7c0,0.3,0,0.6-0.1,0.9
				c-0.3,4.3-0.4,8.5-0.3,10c0,0.2,0,0.3,0,0.4c0,0.2,0.2,0.4,0.4,0.4h0c0.2,0,0.4-0.2,0.4-0.5c0-0.1,0-0.3,0-0.5
				c-0.1-1.6,0-5.7,0.3-10c0-0.3,0-0.6,0.1-0.9c0.2-2.5,0.4-4.9,0.7-6.9c0.4-0.2,0.8-0.5,1.3-0.8C57.1,20,57.6,18.3,57.3,17.2z
				 M44.6,20.7c-0.5-0.6-0.8-2.5-0.5-2.8c0,0,0,0,0.1,0c0.2,0,0.7,0.1,2.1,1.5c0.6,0.6,1.1,1.6,1.4,2.7
				C46.3,22.1,45.1,21.3,44.6,20.7z M50.1,20.1c-0.1-0.5-0.2-1-0.2-1.5c-0.1-1.1,0.3-2,0.7-2.4c0.1-0.1,0.2-0.1,0.2-0.1h0
				c0.1,0,0.3,0.5,0,1.9C50.7,18.8,50.4,19.5,50.1,20.1z M54.8,20.6c-0.2,0.1-0.4,0.3-0.5,0.4c0.2-1.3,0.5-2.3,0.8-2.8
				c0.4-0.8,0.8-1.1,1.1-1.1h0c0.2,0,0.3,0.2,0.3,0.4C56.6,18.3,56.2,19.6,54.8,20.6z"/>
		</g>
		<g>
			<path class="st4" d="M43.8,14.9c-0.1,0-0.1,0.1-0.2,0.1c-0.1,0-0.3-0.1-0.4-0.2L40.9,11c-0.1-0.2-0.1-0.5,0.1-0.6
				c0.2-0.1,0.5-0.1,0.6,0.2l2.3,3.8C44.1,14.6,44,14.8,43.8,14.9z"/>
		</g>
		<g>
			<path class="st4" d="M51.3,12.7c0,0.2-0.2,0.4-0.4,0.4c-0.2,0-0.4-0.2-0.4-0.4l0-4.7c0-0.2,0.2-0.4,0.4-0.4
				c0.2,0,0.4,0.2,0.4,0.4L51.3,12.7z"/>
		</g>
		<g>
			<path class="st4" d="M60.7,11.9l-2.5,2.9C58.1,15,58,15,57.9,15c-0.1,0-0.2,0-0.3-0.1c-0.2-0.2-0.2-0.4-0.1-0.6l2.5-2.9
				c0.2-0.2,0.4-0.2,0.6-0.1C60.8,11.5,60.8,11.7,60.7,11.9z"/>
		</g>
		<g>
			<path class="st4" d="M55.6,11.1l-0.8,2.6c-0.1,0.2-0.2,0.3-0.4,0.3c0,0-0.1,0-0.1,0c-0.2-0.1-0.4-0.3-0.3-0.5l0.8-2.6
				c0.1-0.2,0.3-0.4,0.5-0.3C55.5,10.6,55.7,10.8,55.6,11.1z"/>
		</g>
		<g>
			<path class="st4" d="M47.9,13.5c0,0-0.1,0-0.1,0c-0.2,0-0.4-0.1-0.4-0.3l-0.6-2.2c-0.1-0.2,0.1-0.5,0.3-0.5
				c0.2-0.1,0.5,0.1,0.5,0.3l0.6,2.2C48.3,13.2,48.2,13.5,47.9,13.5z"/>
		</g>
		<g>
			<path class="st4" d="M48.8,45.6c-2.1,0-3.5-0.6-3.6-0.6c-0.2-0.1-0.3-0.3-0.2-0.6c0.1-0.2,0.3-0.3,0.6-0.2c0,0,3,1.2,6.6,0
				c0.2-0.1,0.5,0,0.6,0.3c0.1,0.2,0,0.5-0.3,0.6C51.1,45.4,49.9,45.6,48.8,45.6z"/>
		</g>
		<g>
			<path class="st4" d="M49.3,48.5c-2.1,0-3.9-0.6-4.1-0.6c-0.2-0.1-0.4-0.3-0.3-0.5s0.3-0.4,0.5-0.3c0,0,4.1,1.2,6.6,0
				c0.2-0.1,0.5,0,0.6,0.2c0.1,0.2,0,0.5-0.2,0.6C51.5,48.3,50.4,48.5,49.3,48.5z"/>
		</g>
	</g>
</g>
</svg>
