<?xml version="1.0" encoding="utf-8"?>
<!-- Generator: Adobe Illustrator 24.1.2, SVG Export Plug-In . SVG Version: 6.00 Build 0)  -->
<svg version="1.1" xmlns="http://www.w3.org/2000/svg" xmlns:xlink="http://www.w3.org/1999/xlink" x="0px" y="0px"
	 viewBox="0 0 100 100" style="enable-background:new 0 0 100 100;" xml:space="preserve">
<style type="text/css">
	.st0{display:none;}
	.st1{display:inline;}
	.st2{fill:none;stroke:#828282;stroke-width:2;stroke-linecap:round;stroke-linejoin:round;stroke-miterlimit:10;}
	.st3{fill:#828282;}
	.st4{fill:#3A3A3A;}
	.st5{fill:#3A3A3A;stroke:#828282;stroke-width:2;stroke-linecap:round;stroke-linejoin:round;stroke-miterlimit:10;}
	.st6{fill:none;}
</style>
<g id="Layer_1" class="st0">
</g>
<g id="Layer_2">
	<g>
		<g>
			<path class="st4" d="M45.8,51.3l0-4.8l0-1.3l0-4.1l-0.9-0.9l0,6l0,1.3l0,3l0,1.3l0.9,0.9L45.8,51.3z M53.1,48.3V53l0.9-0.8v-3
				L53.1,48.3z M45.8,52.5l0-1.3l0-4.8l0-1.3l0-4.1l-0.9-0.9l0,6l0,1.3l0,3l0,1.3l0,8.6l0.9-0.8L45.8,52.5z M53.2,38.4l-0.1,0.1
				v15.6l0.9-0.8V40.2C53.7,39.7,53.4,39.1,53.2,38.4z M45.8,52.5l0-1.3l0-4.8l0-1.3l0-4.1l-0.9-0.9l0,6l0,1.3l0,3l0,1.3l0,8.6
				l0.9-0.8L45.8,52.5z M53.1,48.3V53l0.9-0.8v-3L53.1,48.3z M45.8,46.5l-0.9,1l0,3l0.9,0.9L45.8,46.5z M53.1,48.3V53l0.9-0.8v-3
				L53.1,48.3z M45.8,46.5l-0.9,1l0,3l0.9,0.9L45.8,46.5z M53.1,48.3V53l0.9-0.8v-3L53.1,48.3z M45.8,46.5l-0.9,1l0,3l0.9,0.9
				L45.8,46.5z M53.1,48.3V53l0.9-0.8v-3L53.1,48.3z M45.8,46.5l-0.9,1l0,3l0.9,0.9L45.8,46.5z M53.1,48.3V53l0.9-0.8v-3L53.1,48.3z
				 M45.8,46.5l-0.9,1l0,3l0.9,0.9L45.8,46.5z M53.9,12.9C53.9,12.9,53.9,12.9,53.9,12.9C53.9,12.9,53.9,12.9,53.9,12.9
				c0-0.1,0-0.1,0-0.1L49.3,0.3C49.3,0.1,49.1,0,48.9,0c-0.2,0-0.4,0.1-0.4,0.3l-1.6,5.6c0,0,0,0,0,0l-0.1,0.2c0,0,0,0,0,0l-2,6.8
				c0,0.1,0,0.1,0,0.2l0.1,25.8l0,1.3l0,6l0,1.3l0,3l0,1.3l0,8.6l0,1.2l0.1,27.3v0l0,2.8v0.1l0,4.2v1.6c0,1.5,1.2,2.7,2.7,2.7h3.4
				c1.5,0,2.7-1.2,2.7-2.7L53.9,12.9C53.9,13,53.9,13,53.9,12.9z M53.1,97.4c0,1-0.8,1.8-1.8,1.8h-3.4c-1,0-1.8-0.8-1.8-1.8v-1.6
				l0-3.6l0-0.9l0-1.8l0-1l-0.1-27.9l0-1.2l0-6.9l0-1.3l0-4.8l0-1.3l0-4.1l0-1.3l-0.1-26.2l0-0.5l0.1-0.4l1.8-6.1l0.3-0.9L49,1.9
				l1.4,3.8l0.3,0.9l2.2,6l0.2,0.5V97.4z M45.8,46.5l-0.9,1l0,3l0.9,0.9L45.8,46.5z M53.1,48.3V53l0.9-0.8v-3L53.1,48.3z M45.8,46.5
				l-0.9,1l0,3l0.9,0.9L45.8,46.5z M53.1,48.3V53l0.9-0.8v-3L53.1,48.3z M45.8,46.5l-0.9,1l0,3l0.9,0.9L45.8,46.5z M53.1,48.3V53
				l0.9-0.8v-3L53.1,48.3z M45.8,46.5l-0.9,1l0,3l0.9,0.9L45.8,46.5z M53.1,48.3V53l0.9-0.8v-3L53.1,48.3z M45.8,46.5l-0.9,1l0,3
				l0.9,0.9L45.8,46.5z M53.1,48.3V53l0.9-0.8v-3L53.1,48.3z M45.8,46.5l-0.9,1l0,3l0.9,0.9L45.8,46.5z M53.1,48.3V53l0.9-0.8v-3
				L53.1,48.3z M45.8,52.5l0-1.3l0-4.8l0-1.3l0-4.1l-0.9-0.9l0,6l0,1.3l0,3l0,1.3l0,8.6l0.9-0.8L45.8,52.5z M53.1,48.3V53l0.9-0.8
				v-3L53.1,48.3z M45.8,52.5l0-1.3l0-4.8l0-1.3l0-4.1l-0.9-0.9l0,6l0,1.3l0,3l0,1.3l0,8.6l0.9-0.8L45.8,52.5z"/>
		</g>
		<g>
			<path class="st4" d="M50.9,6.6h-3.7c-0.2,0-0.4-0.2-0.4-0.4c0-0.2,0.2-0.4,0.4-0.4h3.7c0.2,0,0.4,0.2,0.4,0.4
				C51.4,6.4,51.2,6.6,50.9,6.6z"/>
		</g>
		<g>
			<path class="st4" d="M53.9,13c0,0.2-0.1,0.4-0.3,0.4c-0.2,0.1-0.4,0.1-0.6,0.1c-0.6,0-1.3-0.3-1.6-0.6c-0.1-0.1-0.5-0.2-0.8-0.2
				c-0.1,0-0.2,0.1-0.3,0.1c-0.3,0.4-0.7,0.6-1.3,0.7c-0.3,0-0.6,0-0.8-0.2c-0.1-0.1-0.2-0.1-0.3-0.2c-0.1,0-0.3-0.2-0.6-0.2
				c0,0-0.1,0-0.2,0c-0.1,0-0.3,0-0.5,0.2c-0.3,0.4-0.7,0.5-1.1,0.5c0,0-0.1,0-0.1,0c-0.2,0-0.5-0.1-0.6-0.1
				c-0.2-0.1-0.3-0.2-0.3-0.4c0-0.1,0-0.1,0-0.2c0.1-0.2,0.4-0.3,0.6-0.2c0,0,0.2,0.1,0.4,0.1c0.2,0,0.3,0,0.4-0.2
				c0.3-0.3,0.7-0.5,1.2-0.5c0,0,0,0,0,0c0.1,0,0.2,0,0.4,0c0.2,0,0.3,0.1,0.5,0.1c0.2,0.1,0.4,0.2,0.5,0.3c0.1,0.1,0.7,0.1,0.9-0.2
				c0.2-0.3,0.6-0.5,1-0.5c0.5,0,1.2,0.2,1.4,0.5c0.1,0.1,0.4,0.2,0.7,0.3c0.2,0,0.4,0,0.5,0c0.2-0.1,0.4,0,0.5,0.2c0,0,0,0,0,0.1
				c0,0,0,0,0,0C53.9,12.9,53.9,12.9,53.9,13C53.9,13,53.9,13,53.9,13z"/>
		</g>
		<g>
			<path class="st4" d="M51.2,25.8v63.6c0,0.2-0.2,0.4-0.4,0.4c-0.2,0-0.4-0.2-0.4-0.4V25.8c0-0.2,0.2-0.4,0.4-0.4
				C51,25.4,51.2,25.6,51.2,25.8z"/>
		</g>
		<g>
			<path class="st4" d="M48.4,12.5v58.1c0,0.2-0.2,0.4-0.4,0.4c-0.2,0-0.4-0.2-0.4-0.4V12.5c0-0.2,0.1-0.4,0.3-0.4c0,0,0.1,0,0.2,0
				c0.1,0,0.3,0.1,0.3,0.2C48.3,12.3,48.4,12.4,48.4,12.5z"/>
		</g>
		<g>
			<path class="st4" d="M50,93c-1.2,0-2.7-0.2-4.6-0.9c-0.2-0.1-0.3-0.3-0.3-0.6c0.1-0.2,0.3-0.3,0.6-0.3c5,1.8,7.5,0.1,7.5,0.1
				c0.2-0.1,0.5-0.1,0.6,0.1c0.1,0.2,0.1,0.5-0.1,0.6C53.7,92,52.4,93,50,93z"/>
		</g>
		<g>
			<path class="st4" d="M53.9,88.8c0,0.2-0.1,0.3-0.3,0.4c0,0-0.3,0.1-0.6,0.3c-0.8,0.3-2.2,0.7-3.8,0.7c-1,0-2.1-0.2-3.2-0.6
				c-0.2-0.1-0.5-0.2-0.7-0.3c-0.1-0.1-0.2-0.2-0.2-0.4v0c0-0.1,0-0.1,0.1-0.2c0.1-0.2,0.4-0.3,0.6-0.2c0.1,0,0.1,0.1,0.2,0.1
				c1.4,0.8,3,0.8,4.3,0.7c0.3,0,0.6-0.1,0.9-0.1c0.8-0.2,1.5-0.4,1.8-0.5c0.2-0.1,0.2-0.1,0.3-0.1c0.2-0.1,0.5,0,0.6,0.2
				C53.9,88.7,53.9,88.7,53.9,88.8z"/>
		</g>
		<g>
			<path class="st4" d="M49.9,95.2c-0.9,0-1.7,0.8-1.7,1.7c0,0.9,0.8,1.7,1.7,1.7c1,0,1.7-0.8,1.7-1.7C51.6,96,50.8,95.2,49.9,95.2z
				 M49.9,97.8c-0.5,0-0.8-0.4-0.8-0.8c0-0.5,0.4-0.8,0.8-0.8c0.5,0,0.8,0.4,0.8,0.8C50.7,97.4,50.3,97.8,49.9,97.8z"/>
		</g>
		<g>
			<path class="st4" d="M45.8,51.3l-0.9-0.9L43.5,49l-0.6-0.6L19.4,25.1l-4.4-8c-0.2-0.4-0.1-0.8,0.1-1l0,0c0.2-0.2,0.6-0.4,1-0.2
				l8.5,3.9l20.3,20.3l0.9,0.9l0-1.3l-0.9-0.9L25.2,19.2c0,0-0.1-0.1-0.1-0.1l-8.5-4c-0.5-0.2-1.1-0.2-1.6,0.1
				c-0.1,0.1-0.3,0.2-0.4,0.3c-0.1,0.1-0.2,0.2-0.2,0.3c-0.3,0.5-0.3,1.2,0,1.7l4.4,8.1c0,0,0,0.1,0.1,0.1L42.3,49l0.6,0.6l2,2
				l0.9,0.9L45.8,51.3z M48.4,42.3l-0.9-0.9v1.3l0.9,0.9V42.3L48.4,42.3L48.4,42.3z M84.9,78.9L53.1,47v1.3l0.9,0.9l1.6,1.6l0.6,0.6
				l28.1,28.1c0.7,0.7,0.7,1.8,0,2.5l-2.4,2.4c-0.7,0.7-1.8,0.7-2.5,0l-1.1-1.1l-24.3-24l-0.9-0.9v1.3l0.9,0.9L77.6,84l1.1,1.1
				c0.5,0.5,1.2,0.8,1.9,0.8c0.7,0,1.4-0.3,1.9-0.8l2.4-2.4C85.9,81.6,85.9,79.9,84.9,78.9z M50.8,56.2l-0.5-0.5V57l0.9,0.9v-1.3
				L50.8,56.2z M50.3,44.3v1.3l0.9,0.9v-1.3L50.3,44.3z M47.5,52.9v1.3l0.9,0.9v-1.3L47.5,52.9z"/>
		</g>
		<g>
			<path class="st4" d="M82.5,80.3c-0.7-0.7-1.8-0.7-2.4,0c-0.7,0.7-0.7,1.8,0,2.4c0.3,0.3,0.8,0.5,1.2,0.5c0.4,0,0.9-0.2,1.2-0.5
				C83.2,82.1,83.2,81,82.5,80.3z M81.9,82.1c-0.3,0.3-0.9,0.3-1.2,0c-0.3-0.3-0.3-0.9,0-1.2c0.2-0.2,0.4-0.2,0.6-0.2
				c0.2,0,0.4,0.1,0.6,0.2C82.2,81.3,82.2,81.8,81.9,82.1z"/>
		</g>
		<g>
			<path class="st4" d="M16.7,80.4c-0.9,0-1.7,0.8-1.7,1.7c0,0.9,0.8,1.7,1.7,1.7s1.7-0.8,1.7-1.7C18.4,81.2,17.6,80.4,16.7,80.4z
				 M16.7,83c-0.5,0-0.8-0.4-0.8-0.8c0-0.5,0.4-0.8,0.8-0.8c0.5,0,0.8,0.4,0.8,0.8C17.5,82.6,17.1,83,16.7,83z"/>
		</g>
		<g>
			<path class="st4" d="M15.2,16.1L15.2,16.1c-0.1,0.1-0.2,0.1-0.3,0.1c-0.1,0-0.2,0-0.3-0.1l-0.3-0.3l-1.7-1.7
				c-0.2-0.2-0.2-0.5,0-0.6c0.2-0.2,0.5-0.2,0.6,0l2,2C15.4,15.6,15.4,15.9,15.2,16.1z"/>
		</g>
		<g>
			<path class="st4" d="M45.9,59.4L45,60.2l-26.6,24c-1.2,1.2-3,1.3-4.1,0.3c0,0,0,0,0,0c-1-1-0.9-2.8,0.3-4.1l28.3-30.8l0.6-0.7
				l-0.6-0.6L42.3,49L14,79.8c-1.6,1.6-1.7,3.9-0.3,5.3c0,0,0,0,0,0c0.6,0.6,1.5,0.9,2.3,0.9c1,0,2.1-0.4,2.9-1.2l26-23.4l0.9-0.8
				L45.9,59.4z M45.8,45.2l-0.9,1l0,1.3l0.9-1L45.8,45.2z M48.4,43.6v-1.2L47.8,43l-0.3,0.3v1.3L48.4,43.6L48.4,43.6L48.4,43.6z
				 M53.1,53v1.2l0.9-0.8v-1.2L53.1,53z M50.3,55.4v1.2l0.5-0.4l0.4-0.4v-1.2L50.3,55.4z M60.8,28.8l-6.9,7.5l-0.9,1v1.3l0.1-0.1
				l0.7-0.7l0.1-0.1l7.5-8.2c0.6-0.6,1.4-1,2.1-1c0-0.2,0-0.4,0-0.5c0-0.1,0-0.2,0.1-0.4C62.7,27.5,61.7,28,60.8,28.8z M70.9,35.7
				c0,0.8-0.4,1.5-1,2.2l-8.4,7.6l-0.8,0.8l-4.4,4l-0.7,0.6l0.6,0.6l0.7-0.6l5.1-4.6c0,0,0,0,0,0l8.6-7.7c0.8-0.8,1.3-1.9,1.3-2.9
				C71.5,35.6,71.2,35.6,70.9,35.7z M50.3,40.2v1.3l0.9-1v-1.3L50.3,40.2z M47.5,58v1.2l0.9-0.8v-1.2L47.5,58z"/>
		</g>
		<g>
			<path class="st4" d="M85,15.1c-0.2-0.1-0.4-0.1-0.6,0c0,0-2.6,1.9-7.3,2.6c-6.9,0.9-9.9,4.1-10.2,4.4c0,0,0,0,0,0
				c-1.6,1.4-2.8,3.3-3.2,5.5c0,0.1,0,0.2-0.1,0.4c0,0.2,0,0.4,0,0.5c-0.1,1.1,0.1,2.1,0.5,3c0.3,0.7,0.6,1.3,1.1,1.9c0,0,0,0,0,0
				c0,0,0.1,0.1,0.1,0.1c1.3,1.4,3.1,2.2,5.1,2.2h0.1c0.1,0,0.2,0,0.4,0c0.3,0,0.6-0.1,0.9-0.1c1.7-0.3,3.2-1.1,4.5-2.2c0,0,0,0,0,0
				c0,0,0,0,0,0c3.1-2.3,4.5-7.5,5.1-10c0.1-0.4,0.2-0.8,0.3-1c0.4-1.2,3.3-6.6,3.3-6.7C85.2,15.5,85.1,15.2,85,15.1z M64.5,29.6
				c0-0.4-0.1-0.7,0-1.1c0-0.2,0-0.3,0-0.5c0-0.1,0-0.3,0.1-0.4c0.3-1.9,1.4-3.7,2.9-4.9c0.3-0.2,0.6-0.4,0.9-0.6
				c-1.4,1.8-2.5,4-3.2,5.7c-0.1,0.3-0.2,0.6-0.3,0.8C64.7,29,64.6,29.3,64.5,29.6z M65.5,32.2c-0.2-0.3-0.4-0.6-0.5-1
				c0.1-0.3,0.3-1.1,0.7-2.1c0.1-0.3,0.2-0.6,0.3-0.9c0.9-2.2,2.3-5.1,4.4-7.1c0,0,0,0,0,0c0.5-0.5,1-0.8,1.5-1.2
				c-0.1,0-0.2,0-0.3,0c0.3-0.1,0.6-0.3,1-0.4c0,0,0,0,0,0c1.3-0.5,2.8-0.9,4.6-1.1c0.3,0,0.6-0.1,0.9-0.1c-1.1,0.7-2.1,1.4-3,2.1h0
				c-0.3,0.2-0.5,0.4-0.8,0.7c-3.4,2.8-5.7,5.9-7.2,8.2c-0.2,0.3-0.3,0.5-0.5,0.8C66.1,31,65.7,31.7,65.5,32.2z M79.2,27.3
				C79.2,27.3,79.2,27.3,79.2,27.3c-0.1,0.2-1.3,2.8-2,3.5c-1.2,2-3.3,3.5-5.6,3.9c-0.3,0.1-0.6,0.1-0.9,0.1c-0.1,0-0.2,0-0.3,0
				c-0.7,0-1.4-0.1-2-0.3c0.4-0.2,1-0.5,1.6-0.8c0.3-0.1,0.5-0.3,0.8-0.5c2.1-1.2,5-3.2,7.4-6l0.9-1c0.3-0.3,0.5-0.7,0.7-1
				C79.8,25.9,79.5,26.6,79.2,27.3z M80.9,22C80.9,22,80.9,22,80.9,22c-0.6,1.1-1.2,2.1-1.9,3c-0.2,0.3-0.5,0.6-0.7,0.9
				c-2.6,3.2-5.8,5.3-8,6.7c-0.3,0.2-0.6,0.3-0.8,0.5c-1,0.5-1.7,0.9-2.1,1c0,0,0,0,0,0c-0.5-0.3-0.9-0.6-1.3-1
				c0.2-0.4,0.6-1.2,1.2-2.2c0.1-0.2,0.3-0.5,0.5-0.8v0c1.5-2.3,3.9-5.6,7.5-8.5c0.2-0.2,0.5-0.4,0.8-0.6c1.8-1.3,3.8-2.6,6.1-3.6
				c0,0,0,0,0,0c0.6-0.2,1-0.4,1.4-0.7C82.6,18.3,81.3,21,80.9,22z"/>
		</g>
		<g>
			<path class="st4" d="M72.6,19.7c-0.2,0.1-0.4,0.2-0.6,0.4c-0.1,0-0.2,0-0.3,0C71.9,19.9,72.2,19.8,72.6,19.7z"/>
		</g>
		<g>
			<path class="st4" d="M62.1,45.9c0,0.1,0,0.2-0.1,0.3c0,0,0,0,0,0c-0.1,0.1-0.2,0.1-0.3,0.1c-0.1,0-0.4,0-1-0.1
				c-1.5-0.3-4.5-1.6-6.7-5.9c-0.3-0.6-0.5-1.2-0.8-1.8c0-0.1-0.1-0.2-0.1-0.3v-0.8c0,0,0.1-0.1,0.2-0.1c0.2-0.1,0.5,0.1,0.6,0.3
				c0,0.1,0.1,0.2,0.1,0.2c0,0.1,0.1,0.2,0.1,0.3c2.4,6.7,6.6,7.4,7.5,7.5c0.1,0,0.1,0,0.2,0C61.9,45.4,62.1,45.6,62.1,45.9z"/>
		</g>
		<g>
			<path class="st4" d="M68.3,37.5c-0.1-0.2-0.4-0.2-0.6-0.1c-1.5,0.8-5.6,3.1-6.7,3.4c-1,0.3-2.9-0.5-3.6-0.8
				c-0.2-0.1-0.4,0-0.5,0.1c-0.1,0.2-0.1,0.4,0,0.6c0.1,0.1,1.6,2.2,3,3c0.3,0.2,0.6,0.2,0.9,0.2c1.4,0,2.7-1.4,2.7-1.4l4.7-4.3
				C68.4,38,68.5,37.7,68.3,37.5z M63,41.8c0,0-1.6,1.6-2.6,1.1c-0.6-0.3-1.2-0.9-1.7-1.4c0.8,0.3,1.8,0.4,2.6,0.2
				c0.7-0.2,2.2-0.9,3.7-1.7L63,41.8z"/>
		</g>
		<g>
			<path class="st4" d="M24.5,38.2c-0.1,0-0.2,0-0.3-0.1l-8.6-7.1c-0.2-0.2-0.2-0.4-0.1-0.6c0.2-0.2,0.4-0.2,0.6-0.1l8.6,7.1
				c0.2,0.2,0.2,0.4,0.1,0.6C24.8,38.2,24.6,38.2,24.5,38.2z"/>
		</g>
		<g>
			<path class="st4" d="M21.1,49H9.3c-0.2,0-0.4-0.2-0.4-0.4s0.2-0.4,0.4-0.4h11.7c0.2,0,0.4,0.2,0.4,0.4S21.3,49,21.1,49z"/>
		</g>
		<g>
			<path class="st4" d="M16.8,68.8c-0.1,0-0.2-0.1-0.3-0.1c-0.2-0.2-0.1-0.5,0-0.6l9.7-8.7c0.2-0.2,0.5-0.1,0.6,0
				c0.2,0.2,0.1,0.5,0,0.6l-9.7,8.7C17,68.8,16.9,68.8,16.8,68.8z"/>
		</g>
		<g>
			<path class="st4" d="M16.8,57.6c-0.2,0-0.3-0.1-0.4-0.3c-0.1-0.2,0-0.5,0.2-0.6l4.7-2c0.2-0.1,0.5,0,0.6,0.2
				c0.1,0.2,0,0.5-0.2,0.6l-4.7,2C16.9,57.5,16.8,57.6,16.8,57.6z"/>
		</g>
		<g>
			<path class="st4" d="M20.5,43.2c0,0-0.1,0-0.1,0l-4.6-1.5c-0.2-0.1-0.4-0.3-0.3-0.6c0.1-0.2,0.3-0.4,0.6-0.3l4.6,1.5
				c0.2,0.1,0.4,0.3,0.3,0.6C20.9,43.1,20.7,43.2,20.5,43.2z"/>
		</g>
		<g>
			<path class="st4" d="M75.5,39.8c-0.1,0-0.3-0.1-0.3-0.2C75,39.4,75,39.2,75.2,39l8.6-7.1c0.2-0.2,0.5-0.1,0.6,0.1
				c0.2,0.2,0.1,0.5-0.1,0.6l-8.6,7.1C75.7,39.8,75.6,39.8,75.5,39.8z"/>
		</g>
		<g>
			<path class="st4" d="M90.7,50.6H78.9c-0.2,0-0.4-0.2-0.4-0.4s0.2-0.4,0.4-0.4h11.7c0.2,0,0.4,0.2,0.4,0.4S90.9,50.6,90.7,50.6z"
				/>
		</g>
		<g>
			<path class="st4" d="M83.2,70.4c-0.1,0-0.2,0-0.3-0.1l-9.7-8.7c-0.2-0.2-0.2-0.4,0-0.6c0.2-0.2,0.4-0.2,0.6,0l9.7,8.7
				c0.2,0.2,0.2,0.4,0,0.6C83.5,70.3,83.3,70.4,83.2,70.4z"/>
		</g>
		<g>
			<path class="st4" d="M83.2,59.1c-0.1,0-0.1,0-0.2,0l-4.7-2c-0.2-0.1-0.3-0.4-0.2-0.6c0.1-0.2,0.4-0.3,0.6-0.2l4.7,2
				c0.2,0.1,0.3,0.4,0.2,0.6C83.5,59,83.4,59.1,83.2,59.1z"/>
		</g>
		<g>
			<path class="st4" d="M79.5,44.7c-0.2,0-0.4-0.1-0.4-0.3c-0.1-0.2,0-0.5,0.3-0.6l4.6-1.5c0.2-0.1,0.5,0.1,0.6,0.3
				c0.1,0.2,0,0.5-0.3,0.6l-4.6,1.5C79.6,44.7,79.5,44.7,79.5,44.7z"/>
		</g>
		<line class="st4" x1="79.2" y1="26.2" x2="78.4" y2="27.2"/>
	</g>
</g>
</svg>
