<?xml version="1.0" encoding="utf-8"?>
<!-- Generator: Adobe Illustrator 24.1.2, SVG Export Plug-In . SVG Version: 6.00 Build 0)  -->
<svg version="1.1" xmlns="http://www.w3.org/2000/svg" xmlns:xlink="http://www.w3.org/1999/xlink" x="0px" y="0px"
	 viewBox="0 0 100 100" style="enable-background:new 0 0 100 100;" xml:space="preserve">
<style type="text/css">
	.st0{display:none;}
	.st1{display:inline;}
	.st2{fill:none;stroke:#828282;stroke-width:2;stroke-linecap:round;stroke-linejoin:round;stroke-miterlimit:10;}
	.st3{fill:#828282;}
	.st4{fill:#3A3A3A;}
	.st5{fill:#3A3A3A;stroke:#828282;stroke-width:2;stroke-linecap:round;stroke-linejoin:round;stroke-miterlimit:10;}
	.st6{fill:none;}
</style>
<g id="Layer_1" class="st0">
</g>
<g id="Layer_2">
	<g>
		<g>
			<path class="st4" d="M89.6,50.4H10.4c-3.4,0-6.1,2.7-6.1,6.1v36.3c0,3.4,2.7,6.1,6.1,6.1h79.2c3.4,0,6.1-2.7,6.1-6.1V56.5
				C95.7,53.1,93,50.4,89.6,50.4z M94.8,92.8c0,2.8-2.3,5.2-5.2,5.2H10.4c-2.8,0-5.2-2.3-5.2-5.2V56.5c0-2.9,2.3-5.2,5.2-5.2h79.2
				c2.9,0,5.2,2.3,5.2,5.2V92.8z"/>
		</g>
		<g>
			<path class="st4" d="M69.4,24.6H28c-1.6,0-2.8,1.3-2.8,2.8v16.8c0,1.6,1.3,2.8,2.8,2.8h41.4c1.6,0,2.8-1.3,2.8-2.8V27.5
				C72.2,25.9,71,24.6,69.4,24.6z M71.3,44.2c0,1-0.8,1.9-1.9,1.9H28c-1,0-1.9-0.9-1.9-1.9V27.5c0-1,0.8-1.9,1.9-1.9h41.4
				c1,0,1.9,0.8,1.9,1.9V44.2z"/>
		</g>
		<g>
			<path class="st4" d="M62,28.4H34.4c-1.1,0-2,0.9-2,2v10.9c0,1.1,0.9,2,2,2H62c1.1,0,2-0.9,2-2V30.4C64,29.3,63.1,28.4,62,28.4z
				 M63.1,41.3c0,0.6-0.5,1.1-1.1,1.1H34.4c-0.6,0-1.1-0.5-1.1-1.1V30.4c0-0.6,0.5-1.1,1.1-1.1H62c0.6,0,1.1,0.5,1.1,1.1V41.3z"/>
		</g>
		<g>
			<path class="st4" d="M86.7,47.6H76.3c-0.9,0-1.7,0.7-1.7,1.7v2.1h0.9v-2.1c0-0.4,0.3-0.7,0.7-0.7h10.4c0.4,0,0.7,0.3,0.7,0.7v2.1
				h0.9v-2.1C88.4,48.3,87.6,47.6,86.7,47.6z"/>
		</g>
		<g>
			<path class="st4" d="M37.2,58.7l-1.5-1.3c-0.6-0.5-1.5-0.5-2.1,0.2l-4.2,4.8c-0.3,0.3-0.4,0.7-0.3,1.1c0,0.4,0.2,0.8,0.5,1
				l1.4,1.2l0.7,0.6c0.1-0.3,0.3-0.6,0.5-0.8l-0.7-0.6l-1.3-1.1C30,63.6,30,63.3,30.2,63l4.2-4.8c0.1-0.1,0.3-0.2,0.4-0.2
				c0.1,0,0.2,0,0.3,0.1l1.3,1.1l0.7,0.6c0.3-0.2,0.5-0.4,0.8-0.6L37.2,58.7z"/>
		</g>
		<g>
			<path class="st4" d="M89.8,55H75.5c-0.7,0-1.2,0.5-1.2,1.2v4.7c0,0.7,0.5,1.2,1.2,1.2h14.4c0.7,0,1.2-0.5,1.2-1.2v-4.7
				C91,55.5,90.5,55,89.8,55z M90.1,60.9c0,0.1-0.1,0.3-0.3,0.3H75.5c-0.1,0-0.3-0.1-0.3-0.3v-4.7c0-0.1,0.1-0.3,0.3-0.3h14.4
				c0.1,0,0.3,0.1,0.3,0.3V60.9z"/>
		</g>
		<g>
			<path class="st4" d="M90,63H75.3c-0.5,0-1,0.4-1,1v2c0,0.5,0.4,1,1,1H90c0.5,0,1-0.4,1-1v-2C91,63.5,90.6,63,90,63z M90.1,66.1
				C90.1,66.1,90.1,66.1,90.1,66.1l-14.8,0.1c0,0-0.1,0-0.1-0.1v-2c0,0,0-0.1,0.1-0.1H90c0,0,0.1,0,0.1,0.1V66.1z"/>
		</g>
		<g>
			<path class="st4" d="M30.9,46.6v4.3c0,0.2-0.1,0.4-0.3,0.4c0,0-0.1,0-0.1,0c0,0-0.1,0-0.1,0c-0.2-0.1-0.3-0.2-0.3-0.4v-4.3
				c0-0.3,0.2-0.5,0.5-0.5C30.7,46.1,30.9,46.3,30.9,46.6z"/>
		</g>
		<g>
			<path class="st4" d="M67.3,46.6v4.3c0,0.2-0.1,0.4-0.3,0.4c0,0-0.1,0-0.1,0c0,0-0.1,0-0.1,0c-0.2-0.1-0.3-0.2-0.3-0.4v-4.3
				c0-0.3,0.2-0.5,0.5-0.5C67.1,46.1,67.3,46.3,67.3,46.6z"/>
		</g>
		<g>
			<path class="st4" d="M45.6,64.7c-0.1-0.2-0.4-0.2-0.5-0.1c-3.5,1.7-5.8,4.8-6.8,9.3c-0.5,2.2-0.4,3.7,0.3,4.6
				c0.5,0.6,1.3,0.9,2.3,0.9c0.1,0,0.2,0,0.3,0c1.1-0.1,1.9-0.4,2.4-1.1c0.7-1,0.8-2.6,0.1-4.7c-1-3.4,1.9-8.3,1.9-8.3
				C45.8,65.1,45.8,64.9,45.6,64.7z M42.9,73.9c0.5,1.8,0.5,3.1,0,3.8c-0.3,0.5-0.9,0.7-1.7,0.8c-0.9,0-1.5-0.1-1.8-0.5
				c-0.5-0.6-0.6-1.9-0.1-3.8c0.8-3.6,2.5-6.2,5-7.9C43.3,68,42.1,71.3,42.9,73.9z"/>
		</g>
		<g>
			<path class="st4" d="M58,70.9c-0.6-0.6-1.4-0.9-2.6-0.8c-1.1,0.1-1.9,0.5-2.4,1.2c-0.7,1-0.7,2.6-0.1,4.7c1,3.3-1.7,8.3-1.8,8.4
				c-0.1,0.2-0.1,0.4,0.1,0.6c0.1,0.1,0.2,0.1,0.3,0.1c0.1,0,0.1,0,0.2-0.1c3.5-1.7,5.7-4.9,6.6-9.4C58.9,73.2,58.7,71.7,58,70.9z
				 M57.5,75.3c-0.7,3.6-2.4,6.3-4.8,8c0.8-1.8,1.9-5.1,1.1-7.7c-0.6-1.8-0.6-3.1-0.1-3.8c0.3-0.5,0.9-0.7,1.7-0.8
				c0.1,0,0.2,0,0.3,0c0.7,0,1.2,0.2,1.5,0.5C57.8,72.1,57.9,73.4,57.5,75.3z"/>
		</g>
		<g>
			<path class="st4" d="M48.5,60.9c-7.6,0-13.8,6.2-13.8,13.8c0,7.6,6.2,13.8,13.8,13.8c7.6,0,13.8-6.2,13.8-13.8
				C62.3,67.1,56.1,60.9,48.5,60.9z M48.5,87.6c-7.1,0-12.9-5.8-12.9-12.9c0-7.1,5.8-12.9,12.9-12.9s12.9,5.8,12.9,12.9
				C61.4,81.8,55.6,87.6,48.5,87.6z"/>
		</g>
		<g>
			<path class="st4" d="M48.5,55.1c-4.2,0-8.1,1.3-11.3,3.6c-0.3,0.2-0.5,0.4-0.8,0.6c-2,1.5-3.6,3.4-4.9,5.6
				c-0.2,0.3-0.3,0.6-0.5,0.8c-1.4,2.7-2.2,5.8-2.2,9c0,10.8,8.8,19.6,19.6,19.6c10.8,0,19.6-8.8,19.6-19.6
				C68.1,63.9,59.3,55.1,48.5,55.1z M48.5,93.4c-10.3,0-18.7-8.4-18.7-18.7c0-3,0.7-5.8,2-8.4c0.1-0.3,0.3-0.6,0.5-0.8
				c1.2-2.2,2.9-4.1,4.9-5.6c0.3-0.2,0.5-0.4,0.8-0.6c3-2.1,6.7-3.3,10.6-3.3c10.3,0,18.7,8.4,18.7,18.7
				C67.2,85,58.8,93.4,48.5,93.4z"/>
		</g>
		<g>
			<path class="st4" d="M24,23.4c-0.1,0-0.2,0-0.3-0.1L12.5,14c-0.2-0.2-0.2-0.5-0.1-0.7c0.2-0.2,0.5-0.2,0.7-0.1l11.2,9.3
				c0.2,0.2,0.2,0.5,0.1,0.7C24.3,23.4,24.1,23.4,24,23.4z"/>
		</g>
		<g>
			<path class="st4" d="M73.7,23.4c-0.1,0-0.2,0-0.3-0.1c-0.2-0.2-0.2-0.5,0-0.7l10.9-10.4c0.2-0.2,0.5-0.2,0.7,0
				c0.2,0.2,0.2,0.5,0,0.7L74,23.3C73.9,23.4,73.8,23.4,73.7,23.4z"/>
		</g>
		<g>
			<path class="st4" d="M49.6,16.7c-0.3,0-0.5-0.2-0.5-0.5V1.6c0-0.3,0.2-0.5,0.5-0.5c0.3,0,0.5,0.2,0.5,0.5v14.6
				C50.1,16.5,49.9,16.7,49.6,16.7z"/>
		</g>
		<g>
			<path class="st4" d="M37.2,16.8c-0.2,0-0.3-0.1-0.4-0.3l-3.3-6.3c-0.1-0.2,0-0.5,0.2-0.6c0.2-0.1,0.5,0,0.6,0.2l3.3,6.3
				c0.1,0.2,0,0.5-0.2,0.6C37.4,16.8,37.3,16.8,37.2,16.8z"/>
		</g>
		<g>
			<path class="st4" d="M61.6,17.8c-0.1,0-0.1,0-0.2,0c-0.2-0.1-0.3-0.4-0.2-0.6l3-6.6c0.1-0.2,0.4-0.3,0.6-0.2
				c0.2,0.1,0.3,0.4,0.2,0.6l-3,6.6C62,17.7,61.8,17.8,61.6,17.8z"/>
		</g>
	</g>
</g>
</svg>
