<svg id="Layer_1" data-name="Layer 1" xmlns="http://www.w3.org/2000/svg" viewBox="0 0 99.57 83.79"><defs><style>.cls-1,.cls-5{font-size:17px;font-family:MotivaSans-Medium, Motiva Sans;font-weight:500;}.cls-1{fill:#231f20;}.cls-2{letter-spacing:-0.02em;}.cls-3{letter-spacing:-0.01em;}.cls-4{letter-spacing:0em;}.cls-5,.cls-6{fill:#f5825f;}</style></defs><text class="cls-1" transform="translate(28.2 23.91)">P<tspan class="cls-2" x="10.11" y="0">r</tspan><tspan class="cls-3" x="16.37" y="0">e</tspan><tspan class="cls-4" x="25.92" y="0">vious</tspan></text><path d="M20.73,38.65c-1.91-3.35-3.37-6.74-5.56-9.57s-2.16-5.2.05-8a52.79,52.79,0,0,0,5.57-8.86,5,5,0,0,0-.2-4.07c-1.66,0-2.67.19-3.72,1.33-1.81,2-2.83,4.7-4.74,6.55-7.92,9.62-6.26,8.53-.74,17.5,1.42,2.3,2.66,4.73,4.27,6.89.63.85,2.19,1.7,3.05,1.48S19.93,40,20.73,38.65Z" transform="translate(-6.72 -8.11)"/><text class="cls-5" transform="translate(28.2 73.91)">P<tspan class="cls-2" x="10.11" y="0">r</tspan><tspan class="cls-3" x="16.37" y="0">e</tspan><tspan class="cls-4" x="25.92" y="0">vious</tspan></text><path class="cls-6" d="M20.73,88.65c-1.91-3.35-3.37-6.74-5.56-9.57s-2.16-5.2.05-8a52.79,52.79,0,0,0,5.57-8.86,5,5,0,0,0-.2-4.07c-1.66,0-2.67.19-3.72,1.33-1.81,2-2.83,4.7-4.74,6.55-7.92,9.62-6.26,8.53-.74,17.5,1.42,2.3,2.66,4.73,4.27,6.89.63.85,2.19,1.7,3.05,1.48S19.93,90,20.73,88.65Z" transform="translate(-6.72 -8.11)"/></svg>