<?xml version="1.0" encoding="utf-8"?>
<!-- Generator: Adobe Illustrator 24.1.2, SVG Export Plug-In . SVG Version: 6.00 Build 0)  -->
<svg version="1.1" xmlns="http://www.w3.org/2000/svg" xmlns:xlink="http://www.w3.org/1999/xlink" x="0px" y="0px"
	 viewBox="0 0 100 100" style="enable-background:new 0 0 100 100;" xml:space="preserve">
<style type="text/css">
	.st0{display:none;}
	.st1{display:inline;}
	.st2{fill:#F5825F;}
	.st3{fill:#FFFFFF;}
	.st4{fill:#FFFFFF;stroke:#828282;stroke-width:2;stroke-linecap:round;stroke-linejoin:round;stroke-miterlimit:10;}
	.st5{fill:none;stroke:#828282;stroke-width:2;stroke-linecap:round;stroke-linejoin:round;stroke-miterlimit:10;}
	.st6{fill:#828282;}
	.st7{fill:none;}
	.st8{fill:#3A3A3A;}
	.st9{fill:#FFFFFF;stroke:#000000;stroke-width:2;stroke-linecap:round;stroke-linejoin:round;stroke-miterlimit:10;}
	.st10{fill:#FFFFFF;stroke:#000000;stroke-width:2;stroke-linecap:round;stroke-miterlimit:10;}
	.st11{fill:#FFFFFF;stroke:#000000;stroke-width:2;stroke-linejoin:round;stroke-miterlimit:10;}
	.st12{fill:none;stroke:#FFFFFF;stroke-width:3;stroke-miterlimit:10;}
	.st13{fill:none;stroke:#FFFFFF;stroke-width:3;stroke-linecap:round;stroke-linejoin:round;stroke-miterlimit:10;}
</style>
<g id="Layer_1" class="st0">
</g>
<g id="Layer_2">
	<g>
		<g>
			<g>
				<path class="st8" d="M84.2,77.3c-0.7,0.7-1.8,1.2-2.9,1.2H33c-2.3,0-4.2-1.9-4.2-4.2V10.8l-1.2,0.1v63.4c0,2.9,2.4,5.3,5.3,5.3
					h48.2c1.2,0,2.3-0.4,3.2-1.1L84.2,77.3z M81.3,0.5H33c-2.9,0-5.3,2.4-5.3,5.3v68.5c0,2.9,2.4,5.3,5.3,5.3h48.2
					c1.2,0,2.3-0.4,3.2-1.1c0.1-0.1,0.2-0.2,0.3-0.2c0.2-0.2,0.5-0.4,0.7-0.7c0.1-0.2,0.3-0.3,0.4-0.5c0.5-0.8,0.8-1.8,0.8-2.8V5.8
					C86.6,2.8,84.2,0.5,81.3,0.5z M85.4,74.3c0,0.6-0.1,1.2-0.4,1.7c-0.1,0.3-0.3,0.5-0.4,0.7c-0.1,0.2-0.3,0.4-0.4,0.5
					c-0.7,0.7-1.8,1.2-2.9,1.2H33c-2.3,0-4.2-1.9-4.2-4.2V5.8c0-2.3,1.9-4.2,4.2-4.2h48.2c2.3,0,4.2,1.9,4.2,4.2V74.3z M84.2,77.3
					c-0.7,0.7-1.8,1.2-2.9,1.2H33c-2.3,0-4.2-1.9-4.2-4.2V10.8l-1.2,0.1v63.4c0,2.9,2.4,5.3,5.3,5.3h48.2c1.2,0,2.3-0.4,3.2-1.1
					L84.2,77.3z"/>
			</g>
		</g>
		<g>
			<g>
				<path class="st8" d="M85.9,78.7l-0.1-1.6L85.4,73v1.3c0,0.6-0.1,1.2-0.4,1.7c-0.1,0.3-0.3,0.5-0.4,0.7l0.1,1.5l0,0.5
					c0,0.4,0,0.7,0,1c-0.3,1.8-1.8,3.3-3.7,3.5l-48,4.3c-2.3,0.2-4.3-1.5-4.5-3.8L23,22.2l-0.1-1.2l-0.5-5.5c-0.1-1.1,0.2-2.2,1-3
					c0.7-0.9,1.7-1.4,2.8-1.5l1.6-0.1l1.2-0.1V9.6l-1.2,0.1L26,9.9c-1.4,0.1-2.7,0.8-3.6,1.9c-0.9,1.1-1.3,2.5-1.2,3.9l0.5,5.7
					l0.1,1.2l5.3,59.1l0.2,2.3c0.1,0.9,0.4,1.8,0.9,2.5c1,1.4,2.6,2.3,4.4,2.3c0.2,0,0.3,0,0.5,0l48-4.3c1.8-0.2,3.3-1.2,4.1-2.6
					c0.4-0.6,0.6-1.3,0.7-2.1C86,79.4,86,79,85.9,78.7z"/>
			</g>
		</g>
		<g>
			<g>
				<path class="st8" d="M27.7,19.9v1.2l1.2-0.3v-1.2L27.7,19.9z M86.5,82.1l-0.5-2.3l-0.5-2.1L85,76c-0.1,0.3-0.3,0.5-0.4,0.7
					c-0.1,0.2-0.3,0.4-0.4,0.5l0.3,1.3l0.3,1.2l0.5,2l0.1,0.5c0.2,1.1,0.1,2.2-0.5,3.1c-0.6,1-1.5,1.6-2.6,1.9l-47,11
					c-1.1,0.2-2.2,0.1-3.1-0.5c-0.9-0.6-1.6-1.5-1.9-2.6l-2-8.7l-1.1-4.8L14.7,28.4c-0.5-2.2,0.9-4.5,3.1-5l4-0.9l1.1-0.3l-0.1-1.2
					l-1.1,0.3l-4.2,1c-2.9,0.7-4.6,3.5-4,6.4l15.6,66.7c0.3,1.4,1.2,2.6,2.4,3.3c0.9,0.5,1.8,0.8,2.8,0.8c0.4,0,0.8,0,1.2-0.1l47-11
					c1.4-0.3,2.6-1.2,3.3-2.4C86.5,84.9,86.8,83.4,86.5,82.1z"/>
			</g>
		</g>
		<g>
			<path class="st8" d="M61.3,11.4c-3.6,0-6.4,0-6.7,0c-0.3,0-0.6-0.3-0.5-0.6c0-0.3,0.3-0.6,0.6-0.5c0.6,0,15.9,0,23.9,0
				c0,0,0,0,0,0c0.3,0,0.6,0.3,0.6,0.6c0,0.3-0.3,0.6-0.6,0.6C78,11.4,68.2,11.4,61.3,11.4z"/>
		</g>
		<g>
			<path class="st8" d="M46.5,65.8c-6.9,0-12.2,0-12.7,0c-0.3,0-0.6-0.3-0.6-0.6c0-0.3,0.3-0.6,0.6-0.6c1.6,0,45.7,0,46.2,0
				c0,0,0,0,0,0c0.3,0,0.6,0.3,0.6,0.6s-0.3,0.6-0.6,0.6C78.7,65.7,59.7,65.8,46.5,65.8z"/>
		</g>
		<g>
			<path class="st8" d="M46.8,71.9c-6.9,0-12.2,0-12.7,0c-0.3,0-0.6-0.3-0.6-0.6c0-0.3,0.3-0.6,0.6-0.6c0,0,0,0,0,0
				c1.6,0,45.7,0,46.2,0c0,0,0,0,0,0c0.3,0,0.6,0.3,0.6,0.6s-0.3,0.6-0.6,0.6C79,71.8,60,71.9,46.8,71.9z"/>
		</g>
		<g>
			<path class="st8" d="M61.3,18.5c-3.6,0-6.4,0-6.7,0c-0.3,0-0.6-0.3-0.5-0.6c0-0.3,0.3-0.6,0.6-0.5c0.6,0,15.9,0,23.9,0
				c0,0,0,0,0,0c0.3,0,0.6,0.3,0.6,0.6c0,0.3-0.3,0.6-0.6,0.6C78,18.4,68.2,18.5,61.3,18.5z"/>
		</g>
		<g>
			<path class="st8" d="M61.3,25.6c-3.6,0-6.4,0-6.7,0c-0.3,0-0.6-0.3-0.5-0.6c0-0.3,0.3-0.6,0.6-0.5c0.6,0,15.9,0,23.9,0
				c0,0,0,0,0,0c0.3,0,0.6,0.3,0.6,0.6c0,0.3-0.3,0.6-0.6,0.6C78,25.5,68.2,25.6,61.3,25.6z"/>
		</g>
		<g>
			<path class="st8" d="M61.3,32.7c-3.6,0-6.4,0-6.7,0c-0.3,0-0.6-0.3-0.5-0.6c0-0.3,0.3-0.6,0.6-0.5c0.6,0,15.9,0,23.9,0
				c0,0,0,0,0,0c0.3,0,0.6,0.3,0.6,0.6c0,0.3-0.3,0.6-0.6,0.6C78,32.6,68.2,32.7,61.3,32.7z"/>
		</g>
		<g>
			<path class="st8" d="M48.2,33.4H34.6c-1.3,0-2.4-1.1-2.4-2.4V12.6c0-1.3,1.1-2.4,2.4-2.4h13.5c1.3,0,2.4,1.1,2.4,2.4v18.3
				C50.6,32.3,49.5,33.4,48.2,33.4z M34.6,11.4c-0.7,0-1.3,0.6-1.3,1.3v18.3c0,0.7,0.6,1.3,1.3,1.3h13.5c0.7,0,1.3-0.6,1.3-1.3V12.6
				c0-0.7-0.6-1.3-1.3-1.3H34.6z"/>
		</g>
		<g>
			<path class="st8" d="M76.3,60.1H35.9c-2,0-3.7-1.6-3.7-3.7V39.9c0-2,1.6-3.7,3.7-3.7h40.4c2,0,3.7,1.6,3.7,3.7v16.5
				C80,58.5,78.3,60.1,76.3,60.1z M35.9,37.4c-1.4,0-2.5,1.1-2.5,2.5v16.5c0,1.4,1.1,2.5,2.5,2.5h40.4c1.4,0,2.5-1.1,2.5-2.5V39.9
				c0-1.4-1.1-2.5-2.5-2.5H35.9z"/>
		</g>
	</g>
</g>
</svg>
