<?xml version="1.0" encoding="utf-8"?>
<!-- Generator: Adobe Illustrator 24.1.2, SVG Export Plug-In . SVG Version: 6.00 Build 0)  -->
<svg version="1.1" xmlns="http://www.w3.org/2000/svg" xmlns:xlink="http://www.w3.org/1999/xlink" x="0px" y="0px"
	 viewBox="0 0 100 100" style="enable-background:new 0 0 100 100;" xml:space="preserve">
<style type="text/css">
	.st0{display:none;}
	.st1{display:inline;}
	.st2{fill:#F5825F;}
	.st3{fill:#FFFFFF;}
	.st4{fill:#FFFFFF;stroke:#828282;stroke-width:2;stroke-linecap:round;stroke-linejoin:round;stroke-miterlimit:10;}
	.st5{fill:none;stroke:#828282;stroke-width:2;stroke-linecap:round;stroke-linejoin:round;stroke-miterlimit:10;}
	.st6{fill:#828282;}
	.st7{fill:none;}
	.st8{fill:#3A3A3A;}
	.st9{fill:#FFFFFF;stroke:#000000;stroke-width:2;stroke-linecap:round;stroke-linejoin:round;stroke-miterlimit:10;}
	.st10{fill:#FFFFFF;stroke:#000000;stroke-width:2;stroke-linecap:round;stroke-miterlimit:10;}
	.st11{fill:#FFFFFF;stroke:#000000;stroke-width:2;stroke-linejoin:round;stroke-miterlimit:10;}
	.st12{fill:none;stroke:#FFFFFF;stroke-width:3;stroke-miterlimit:10;}
	.st13{fill:none;stroke:#FFFFFF;stroke-width:3;stroke-linecap:round;stroke-linejoin:round;stroke-miterlimit:10;}
</style>
<g id="Layer_1" class="st0">
</g>
<g id="Layer_2">
	<g>
		<g>
			<path class="st8" d="M94.8,15.3H5.2c-2.9,0-5.2,2.3-5.2,5.2v40.9c0,2.9,2.3,5.2,5.2,5.2h89.6c2.9,0,5.2-2.3,5.2-5.2V20.5
				C100,17.6,97.7,15.3,94.8,15.3z M99.1,61.4c0,2.4-1.9,4.3-4.3,4.3H5.2c-2.4,0-4.3-1.9-4.3-4.3V20.5c0-2.4,1.9-4.3,4.3-4.3h89.6
				c2.4,0,4.3,1.9,4.3,4.3V61.4z"/>
		</g>
		<g>
			<path class="st8" d="M100,54.2c0,0.3-0.2,0.5-0.5,0.5H0.6c-0.3,0-0.5-0.2-0.5-0.5c0-0.3,0.2-0.5,0.5-0.5h98.9
				C99.8,53.8,100,54,100,54.2z"/>
		</g>
		<g>
			<path class="st8" d="M49.5,56.9c-1.8,0-3.3,1.5-3.3,3.3c0,1.8,1.5,3.3,3.3,3.3c1.8,0,3.3-1.5,3.3-3.3
				C52.8,58.4,51.3,56.9,49.5,56.9z M49.5,62.5c-1.3,0-2.4-1.1-2.4-2.4c0-1.3,1.1-2.4,2.4-2.4c1.3,0,2.4,1.1,2.4,2.4
				C51.9,61.5,50.8,62.5,49.5,62.5z"/>
		</g>
		<g>
			<path class="st8" d="M77.8,74.9H22.2c-1.6,0-2.9,1.3-2.9,2.9v5.8c0,0.6,0.5,1.1,1.1,1.1h59c0.6,0,1.1-0.5,1.1-1.1v-5.8
				C80.7,76.2,79.4,74.9,77.8,74.9z M79.8,83.5c0,0.1-0.1,0.2-0.2,0.2h-59c-0.1,0-0.2-0.1-0.2-0.2v-5.8c0-1.1,0.9-1.9,1.9-1.9h55.6
				c1.1,0,1.9,0.9,1.9,1.9V83.5z"/>
		</g>
		<g>
			<path class="st8" d="M31.3,66.2v9.1c0,0.3-0.2,0.5-0.5,0.5c-0.3,0-0.5-0.2-0.5-0.5v-9.1c0-0.3,0.2-0.5,0.5-0.5
				C31.1,65.7,31.3,65.9,31.3,66.2z"/>
		</g>
		<g>
			<path class="st8" d="M68.1,66.2v9.1c0,0.3-0.2,0.5-0.5,0.5s-0.5-0.2-0.5-0.5v-9.1c0-0.3,0.2-0.5,0.5-0.5S68.1,65.9,68.1,66.2z"/>
		</g>
		<g>
			<path class="st8" d="M87.3,21.3H14.6c-1.6,0-2.8,1.3-2.8,2.8v15.7c0,1.6,1.3,2.8,2.8,2.8h72.6c1.6,0,2.8-1.3,2.8-2.8V24.1
				C90.1,22.6,88.8,21.3,87.3,21.3z M89.2,39.9c0,1.1-0.9,1.9-1.9,1.9H14.6c-1.1,0-1.9-0.9-1.9-1.9V24.1c0-1.1,0.9-1.9,1.9-1.9h72.6
				c1.1,0,1.9,0.9,1.9,1.9V39.9z"/>
		</g>
		<g>
			<path class="st8" d="M32.4,46H14.7c-1.6,0-2.9,1.3-2.9,2.9v4.7c0,0,0,0.1,0,0.1c0,0.3,0.1,0.6,0.2,0.9h1
				c-0.2-0.3-0.3-0.6-0.3-0.9c0,0,0-0.1,0-0.1V49c0-1.1,0.9-2,2-2h17.7c1.1,0,2,0.9,2,2v4.7c0,0,0,0.1,0,0.1c0,0.3-0.1,0.6-0.3,0.9
				h1c0.1-0.3,0.2-0.6,0.2-0.9c0,0,0-0.1,0-0.1V49C35.3,47.4,34,46,32.4,46z"/>
		</g>
		<g>
			<path class="st8" d="M87.2,46H69.5c-1.6,0-2.9,1.3-2.9,2.9v4.7c0,0,0,0.1,0,0.1c0,0.3,0.1,0.6,0.2,0.9h1
				c-0.2-0.3-0.3-0.6-0.3-0.9c0,0,0-0.1,0-0.1V49c0-1.1,0.9-2,2-2h17.7c1.1,0,2,0.9,2,2v4.7c0,0,0,0.1,0,0.1c0,0.3-0.1,0.6-0.3,0.9
				h1c0.1-0.3,0.2-0.6,0.2-0.9c0,0,0-0.1,0-0.1V49C90.1,47.4,88.8,46,87.2,46z"/>
		</g>
		<g>
			<path class="st8" d="M59.8,46H42.1c-1.6,0-2.9,1.3-2.9,2.9v4.7c0,0,0,0.1,0,0.1c0,0.3,0.1,0.6,0.2,0.9h1
				c-0.2-0.3-0.3-0.6-0.3-0.9c0,0,0-0.1,0-0.1V49c0-1.1,0.9-2,2-2h17.7c1.1,0,2,0.9,2,2v4.7c0,0,0,0.1,0,0.1c0,0.3-0.1,0.6-0.3,0.9
				h1c0.1-0.3,0.2-0.6,0.2-0.9c0,0,0-0.1,0-0.1V49C62.7,47.4,61.4,46,59.8,46z"/>
		</g>
	</g>
</g>
</svg>
