<?xml version="1.0" encoding="utf-8"?>
<!-- Generator: Adobe Illustrator 24.1.2, SVG Export Plug-In . SVG Version: 6.00 Build 0)  -->
<svg version="1.1" xmlns="http://www.w3.org/2000/svg" xmlns:xlink="http://www.w3.org/1999/xlink" x="0px" y="0px"
	 viewBox="0 0 100 100" style="enable-background:new 0 0 100 100;" xml:space="preserve">
<style type="text/css">
	.st0{display:none;}
	.st1{display:inline;}
	.st2{fill:none;stroke:#828282;stroke-width:2;stroke-linecap:round;stroke-linejoin:round;stroke-miterlimit:10;}
	.st3{fill:#828282;}
	.st4{fill:#3A3A3A;}
	.st5{fill:#3A3A3A;stroke:#828282;stroke-width:2;stroke-linecap:round;stroke-linejoin:round;stroke-miterlimit:10;}
	.st6{fill:none;}
</style>
<g id="Layer_1" class="st0">
</g>
<g id="Layer_2">
	<g>
		<g>
			<path class="st4" d="M94.8,24.2H5.2c-2.9,0-5.2,2.3-5.2,5.2v40.9c0,2.9,2.3,5.2,5.2,5.2h89.6c2.9,0,5.2-2.3,5.2-5.2V29.4
				C100,26.5,97.7,24.2,94.8,24.2z M99.1,70.3c0,2.4-1.9,4.3-4.3,4.3H5.2c-2.4,0-4.3-1.9-4.3-4.3V29.4c0-2.4,1.9-4.3,4.3-4.3h89.6
				c2.4,0,4.3,1.9,4.3,4.3V70.3z"/>
		</g>
		<g>
			<path class="st4" d="M100,63.1c0,0.3-0.2,0.5-0.5,0.5h-99c-0.3,0-0.5-0.2-0.5-0.5s0.2-0.5,0.5-0.5h99
				C99.8,62.6,100,62.9,100,63.1z"/>
		</g>
		<g>
			<path class="st4" d="M66.2,35.1l-0.8,0.2c-1.8,0.5-3.6,0.1-5-0.9c-0.1-0.1-0.1-0.1-0.2-0.1c-1.3-0.9-2.6-0.8-3.8-0.4
				c-1.7,0.6-2.9,1.9-3,1.9S53.3,36,53.2,36c-0.1,0-0.2,0-0.3-0.1c-0.2-0.2-0.2-0.5,0-0.6c0,0,4.3-4.4,8.2-1.5
				c1.2,0.9,2.7,1.1,4.2,0.7l0.8-0.2c0.2-0.1,0.5,0.1,0.6,0.3C66.6,34.8,66.5,35,66.2,35.1z"/>
		</g>
		<g>
			<path class="st4" d="M46.5,36.2c-0.1,0.1-0.2,0.1-0.3,0.1c-0.1,0-0.2-0.1-0.3-0.2c-0.1-0.1-1.1-1.1-2.4-1.8
				c-1.2-0.6-2.7-0.9-4.2,0c-0.2,0.1-0.4,0.2-0.5,0.4c-1.1,0.9-2.7,1.2-4.1,0.7l-1.5-0.4c-0.2-0.1-0.4-0.3-0.3-0.6
				c0.1-0.2,0.3-0.4,0.6-0.3l1.5,0.4c1.2,0.3,2.4,0.1,3.3-0.6c1.7-1.3,3.7-1.5,5.8-0.4c1.5,0.8,2.6,1.9,2.6,2
				C46.7,35.8,46.7,36.1,46.5,36.2z"/>
		</g>
		<g>
			<path class="st4" d="M65.4,50.3C65.4,50.3,65.3,50.3,65.4,50.3c-0.1,0.1-4.2,6.4-12.3,6.4c-1.3,0-2.6-0.2-4.1-0.5
				c-0.2-0.1-0.4-0.3-0.3-0.6c0.1-0.2,0.3-0.4,0.5-0.3c10.1,2.5,15.2-5.1,15.4-5.5c0.1-0.2,0.4-0.3,0.6-0.1
				C65.4,49.8,65.5,50.1,65.4,50.3z"/>
		</g>
		<g>
			<path class="st4" d="M66.8,52.2C66.8,52.2,66.7,52.2,66.8,52.2c-0.3,0-0.5-0.1-0.5-0.4c-0.2-0.7-0.5-1.2-0.9-1.6
				c-0.3-0.2-0.5-0.4-0.8-0.5c-0.8-0.3-1.5-0.3-1.6-0.3c-0.3,0-0.5-0.2-0.5-0.4c0-0.3,0.2-0.5,0.4-0.5c1.2-0.1,3.7,0.4,4.2,3
				C67.2,51.9,67,52.2,66.8,52.2z"/>
		</g>
		<g>
			<path class="st4" d="M36.4,41.2l-2.5,2.4c-0.1,0.1-0.2,0.1-0.3,0.1c-0.1,0-0.2,0-0.3-0.1c-0.2-0.2-0.2-0.5,0-0.6l2.5-2.4
				c0.2-0.2,0.5-0.2,0.6,0C36.6,40.8,36.6,41,36.4,41.2z"/>
		</g>
		<g>
			<path class="st4" d="M33,41.2l-2.5,2.4c-0.1,0.1-0.2,0.1-0.3,0.1c-0.1,0-0.2,0-0.3-0.1c-0.2-0.2-0.2-0.5,0-0.6l2.5-2.4
				c0.2-0.2,0.5-0.2,0.6,0C33.2,40.8,33.2,41.1,33,41.2z"/>
		</g>
		<g>
			<path class="st4" d="M40.2,41.3l-2.5,2.4c-0.1,0.1-0.2,0.1-0.3,0.1c-0.1,0-0.2,0-0.3-0.1c-0.2-0.2-0.2-0.5,0-0.6l2.5-2.4
				c0.2-0.2,0.5-0.2,0.6,0C40.4,40.8,40.4,41.1,40.2,41.3z"/>
		</g>
		<g>
			<path class="st4" d="M66.2,41.1l-2.5,2.4c-0.1,0.1-0.2,0.1-0.3,0.1c-0.1,0-0.2,0-0.3-0.1c-0.2-0.2-0.2-0.5,0-0.6l2.5-2.4
				c0.2-0.2,0.5-0.2,0.6,0C66.4,40.6,66.4,40.9,66.2,41.1z"/>
		</g>
		<g>
			<path class="st4" d="M62.9,41.1l-2.5,2.4c-0.1,0.1-0.2,0.1-0.3,0.1c-0.1,0-0.2,0-0.3-0.1c-0.2-0.2-0.2-0.5,0-0.6l2.5-2.4
				c0.2-0.2,0.5-0.2,0.6,0C63.1,40.6,63.1,40.9,62.9,41.1z"/>
		</g>
		<g>
			<path class="st4" d="M70.1,41.1l-2.5,2.4c-0.1,0.1-0.2,0.1-0.3,0.1c-0.1,0-0.2,0-0.3-0.1c-0.2-0.2-0.2-0.5,0-0.6l2.5-2.4
				c0.2-0.2,0.5-0.2,0.6,0C70.2,40.6,70.2,40.9,70.1,41.1z"/>
		</g>
		<g>
			<path class="st4" d="M43.4,34.4c-0.4-0.8-1.2-1.3-2.1-1.3c-0.9,0-1.7,0.5-2.1,1.3c-0.2,0.3-0.2,0.7-0.2,1c0,0.5,0.1,0.9,0.4,1.2
				c0.2,0.3,0.4,0.5,0.7,0.7c0.9-0.4,1.9-0.2,2.6,0c0.3-0.2,0.5-0.4,0.7-0.7c0.2-0.4,0.4-0.8,0.4-1.2C43.7,35.1,43.6,34.7,43.4,34.4
				z M41.3,36.9c-0.4,0-0.8-0.2-1.1-0.5c-0.2-0.2-0.3-0.6-0.3-0.9c0-0.8,0.6-1.4,1.4-1.4c0.8,0,1.4,0.6,1.4,1.4c0,0.4-0.1,0.7-0.4,1
				C42.1,36.7,41.7,36.9,41.3,36.9z"/>
		</g>
		<g>
			<path class="st4" d="M60.2,34.3c-0.4-0.7-1.2-1.2-2-1.2c-0.7,0-1.3,0.3-1.7,0.8c-0.4,0.4-0.6,1-0.6,1.6c0,0.5,0.1,0.9,0.4,1.3
				c0.2,0.3,0.4,0.5,0.7,0.7c0.9-0.4,1.9-0.2,2.6,0c0.3-0.2,0.5-0.4,0.7-0.7c0.2-0.4,0.4-0.8,0.4-1.2C60.6,35,60.5,34.6,60.2,34.3z
				 M58.2,36.9c-0.4,0-0.8-0.2-1.1-0.5c-0.2-0.2-0.3-0.6-0.3-0.9c0-0.8,0.6-1.4,1.4-1.4c0.8,0,1.4,0.6,1.4,1.4
				c0,0.4-0.1,0.7-0.4,0.9C59,36.7,58.6,36.9,58.2,36.9z"/>
		</g>
		<g>
			<path class="st4" d="M44,37.5c-0.1,0.2-0.4,0.3-0.6,0.2c0,0-0.3-0.2-0.8-0.3c-0.7-0.2-1.6-0.4-2.6,0c-0.3,0.1-0.5,0.3-0.8,0.5
				c-0.1,0.1-0.2,0.1-0.3,0.1c-0.1,0-0.3-0.1-0.4-0.2c-0.2-0.2-0.1-0.5,0.1-0.6c0.2-0.2,0.4-0.3,0.7-0.5c0.3-0.2,0.6-0.3,0.9-0.3
				c0.8-0.2,1.5-0.1,2.1,0c0.4,0.1,0.7,0.2,0.9,0.3c0.3,0.1,0.5,0.2,0.5,0.2C44.1,37,44.2,37.3,44,37.5z"/>
		</g>
		<g>
			<path class="st4" d="M61,37.5c-0.1,0.2-0.4,0.3-0.6,0.2c0,0-0.3-0.2-0.8-0.3c-0.7-0.2-1.7-0.4-2.6,0c-0.3,0.1-0.5,0.3-0.8,0.5
				c-0.1,0.1-0.2,0.1-0.3,0.1c-0.1,0-0.3-0.1-0.4-0.2c-0.2-0.2-0.1-0.5,0.1-0.6c0.2-0.2,0.4-0.3,0.7-0.4c0.3-0.2,0.6-0.3,0.9-0.3
				c0.8-0.2,1.5-0.1,2.1,0c0.4,0.1,0.7,0.2,0.9,0.3c0.3,0.1,0.5,0.2,0.6,0.3C61,37,61.1,37.3,61,37.5z"/>
		</g>
		<g>
			<path class="st4" d="M49.5,65.8c-1.8,0-3.3,1.5-3.3,3.3s1.5,3.3,3.3,3.3c1.8,0,3.3-1.5,3.3-3.3S51.3,65.8,49.5,65.8z M49.5,71.4
				c-1.3,0-2.4-1.1-2.4-2.4c0-1.3,1.1-2.4,2.4-2.4c1.3,0,2.4,1.1,2.4,2.4C51.9,70.4,50.8,71.4,49.5,71.4z"/>
		</g>
		<g>
			<path class="st4" d="M50.1,17.7c-0.2,0-0.5-0.2-0.5-0.5L49.5,6.9c0-0.3,0.2-0.5,0.5-0.5c0.2,0,0.5,0.2,0.5,0.5l0.1,10.4
				C50.6,17.5,50.4,17.7,50.1,17.7C50.1,17.7,50.1,17.7,50.1,17.7z"/>
		</g>
		<g>
			<path class="st4" d="M43.6,18.1c-0.1,0-0.3-0.1-0.3-0.2l-3.8-4.3c-0.2-0.2-0.1-0.5,0-0.6c0.2-0.2,0.5-0.1,0.6,0l3.8,4.3
				c0.2,0.2,0.1,0.5,0,0.6C43.8,18.1,43.7,18.1,43.6,18.1z"/>
		</g>
		<g>
			<path class="st4" d="M56.2,18.3c-0.1,0-0.2,0-0.3-0.1c-0.2-0.2-0.2-0.4-0.1-0.6l3.7-4.4c0.2-0.2,0.4-0.2,0.6-0.1
				c0.2,0.2,0.2,0.4,0.1,0.6l-3.7,4.4C56.5,18.2,56.3,18.3,56.2,18.3z"/>
		</g>
		<g>
			<path class="st4" d="M38.6,21.3c0,0-0.1,0-0.1,0l-11.3-2.9c-0.2-0.1-0.4-0.3-0.3-0.6s0.3-0.4,0.6-0.3l11.3,2.9
				c0.2,0.1,0.4,0.3,0.3,0.6C39,21.2,38.8,21.3,38.6,21.3z"/>
		</g>
		<g>
			<path class="st4" d="M60.6,21.3c-0.2,0-0.4-0.1-0.4-0.4c-0.1-0.2,0.1-0.5,0.3-0.5l12.2-2.9c0.2-0.1,0.5,0.1,0.5,0.3
				c0.1,0.2-0.1,0.5-0.3,0.5l-12.2,2.9C60.6,21.3,60.6,21.3,60.6,21.3z"/>
		</g>
		<g>
			<path class="st4" d="M77.8,83.8H22.2c-1.6,0-2.9,1.3-2.9,2.9v5.8c0,0.6,0.5,1.1,1.1,1.1h59.1c0.6,0,1.1-0.5,1.1-1.1v-5.8
				C80.7,85.1,79.4,83.8,77.8,83.8z M79.8,92.5c0,0.1-0.1,0.2-0.2,0.2H20.5c-0.1,0-0.2-0.1-0.2-0.2v-5.8c0-1.1,0.9-1.9,2-1.9h55.6
				c1.1,0,1.9,0.9,1.9,1.9V92.5z"/>
		</g>
		<g>
			<path class="st4" d="M30.9,84.7c-0.3,0-0.5-0.2-0.5-0.5v-9.1c0-0.3,0.2-0.5,0.5-0.5s0.5,0.2,0.5,0.5v9.1
				C31.3,84.5,31.1,84.7,30.9,84.7z"/>
		</g>
		<g>
			<path class="st4" d="M67.6,84.7c-0.3,0-0.5-0.2-0.5-0.5v-9.1c0-0.3,0.2-0.5,0.5-0.5s0.5,0.2,0.5,0.5v9.1
				C68.1,84.5,67.9,84.7,67.6,84.7z"/>
		</g>
	</g>
</g>
</svg>
